<svg width="446" height="505" viewBox="0 0 446 505" fill="none" xmlns="http://www.w3.org/2000/svg">
<path d="M445.87 71.82V474.5C445.87 478.44 445.094 482.341 443.587 485.981C442.079 489.621 439.87 492.928 437.084 495.714C434.298 498.5 430.991 500.709 427.351 502.217C423.711 503.724 419.81 504.5 415.87 504.5H30.13C26.1903 504.5 22.2891 503.724 18.6492 502.217C15.0093 500.709 11.702 498.5 8.91621 495.714C6.1304 492.928 3.92063 489.621 2.41308 485.981C0.90553 482.341 0.129738 478.44 0.130001 474.5V71.82C0.130532 63.8504 3.29667 56.2074 8.93203 50.572C14.5674 44.9367 22.2104 41.7705 30.18 41.77H415.82C423.79 41.7705 431.433 44.9367 437.068 50.572C442.703 56.2074 445.869 63.8504 445.87 71.82Z" fill="#F1F6F9"/>
<path d="M445.87 71.82V148.95H0.130001L0.130001 71.82C0.130532 63.8504 3.29667 56.2074 8.93203 50.572C14.5674 44.9367 22.2104 41.7705 30.18 41.77H415.82C423.79 41.7705 431.433 44.9367 437.068 50.572C442.703 56.2074 445.869 63.8504 445.87 71.82Z" fill="#8098F9"/>
<path d="M96.3 41.774V22.807C96.2979 20.7371 95.4747 18.7526 94.011 17.289C92.5474 15.8253 90.5629 15.0021 88.493 15H85.05C82.9802 15.0024 80.9958 15.8257 79.5323 17.2892C78.0687 18.7528 77.2454 20.7372 77.243 22.807V71.327C77.2456 73.3966 78.0691 75.3807 79.5326 76.8441C80.9962 78.3075 82.9804 79.1306 85.05 79.133C87.0391 79.133 88.9468 79.9232 90.3533 81.3297C91.7598 82.7362 92.55 84.6439 92.55 86.633C92.55 88.6221 91.7598 90.5298 90.3533 91.9363C88.9468 93.3428 87.0391 94.133 85.05 94.133C79.0033 94.1261 73.2063 91.721 68.9306 87.4454C64.655 83.1697 62.2499 77.3727 62.243 71.326V22.806C62.2501 16.7595 64.6553 10.9627 68.931 6.68726C73.2066 2.41183 79.0035 0.00688096 85.05 0H88.493C94.5398 0.00661731 100.337 2.41162 104.613 6.68732C108.888 10.963 111.293 16.7602 111.3 22.807V41.774H96.3Z" fill="#DDE8EF"/>
<path d="M368.757 41.774V22.807C368.755 20.7372 367.931 18.7528 366.468 17.2892C365.004 15.8257 363.02 15.0024 360.95 15H357.507C355.437 15.0021 353.453 15.8253 351.989 17.289C350.525 18.7526 349.702 20.7371 349.7 22.807V71.327C349.702 73.3967 350.526 75.381 351.989 76.8444C353.453 78.3078 355.437 79.1309 357.507 79.133C359.496 79.133 361.404 79.9232 362.81 81.3297C364.217 82.7362 365.007 84.6439 365.007 86.633C365.007 88.6221 364.217 90.5298 362.81 91.9363C361.404 93.3428 359.496 94.133 357.507 94.133C351.46 94.1264 345.663 91.7214 341.387 87.4457C337.112 83.17 334.707 77.3728 334.7 71.326V22.806C334.707 16.7594 337.112 10.9625 341.388 6.68697C345.663 2.41148 351.46 0.00661683 357.507 0H360.95C366.997 0.00688146 372.794 2.41196 377.069 6.68762C381.345 10.9633 383.75 16.7603 383.757 22.807V41.774H368.757ZM232.529 41.774V22.807C232.527 20.7372 231.703 18.7528 230.24 17.2892C228.776 15.8257 226.792 15.0024 224.722 15H221.278C219.208 15.0024 217.224 15.8257 215.76 17.2892C214.297 18.7528 213.473 20.7372 213.471 22.807V71.327C213.474 73.3966 214.297 75.3807 215.761 76.8441C217.224 78.3075 219.208 79.1306 221.278 79.133C223.267 79.133 225.175 79.9232 226.581 81.3297C227.988 82.7362 228.778 84.6439 228.778 86.633C228.778 88.6221 227.988 90.5298 226.581 91.9363C225.175 93.3428 223.267 94.133 221.278 94.133C215.231 94.1261 209.434 91.721 205.159 87.4454C200.883 83.1697 198.478 77.3727 198.471 71.326V22.806C198.478 16.7595 200.883 10.9627 205.159 6.68726C209.435 2.41183 215.231 0.00688096 221.278 0H224.722C230.769 0.00688146 236.566 2.41196 240.841 6.68762C245.117 10.9633 247.522 16.7603 247.529 22.807V41.774H232.529Z" fill="#DDE8EF"/>
</svg>
